# xmcd CD database file
#
# Track frame offsets:
#	150
#	12125
#	23426
#	35151
#	43635
#	54671
#	66091
#	78150
#	89539
#	102931
#	117053
#	129288
#	141095
#	153049
#	164344
#	177207
#	190192
#	201667
#	213976
#	226278
#	237745
#
# Disc length: 3321 seconds
#
# Revision: 0
# Processed by: cddbd v1.5.2PL0 Copyright (c) Steve Scherf et al.
# Submitted via: CDex 1.51
#
DISCID=170cf715
DTITLE=merengue - só merenque
DYEAR=1900
DGENRE=Merengue
TTITLE0=chico cervante_ellayyo
TTITLE1=chico cervantes_marina
TTITLE2=los corraleros_charanga
TTITLE3=los wawango_la paloma
TTITLE4=los corraleros_el molinillos
TTITLE5=los wawango_la pollera colora
TTITLE6=los corraleros_pirulino
TTITLE7=chico cervantes_a lavadeira
TTITLE8=los corraleros_cumbianrita
TTITLE9=los corraleros_festival de guarare
TTITLE10=los carraleros_negrito piropero
TTITLE11=los corraleros_la varita
TTITLE12=trigemeos vocalista_la pachanga
TTITLE13=los corraleros_roba rerco
TTITLE14=los cumbiamberos pacheco_santos domingo
TTITLE15=los corraleros_ala palma de coco
TTITLE16=los cavilanes de la costa_lorenza
TTITLE17=los corraleros_el vampiro
TTITLE18=los corraleros_el mondongo
TTITLE19=chico cervantes_vem dançar
TTITLE20=anibal velasquez_regochado
EXTD=
EXTT0=
EXTT1=
EXTT2=
EXTT3=
EXTT4=
EXTT5=
EXTT6=
EXTT7=
EXTT8=
EXTT9=
EXTT10=
EXTT11=
EXTT12=
EXTT13=
EXTT14=
EXTT15=
EXTT16=
EXTT17=
EXTT18=
EXTT19=
EXTT20=
PLAYORDER=
